<svg width="26" height="32" viewBox="0 0 26 32" fill="none" xmlns="http://www.w3.org/2000/svg">
<path d="M4.89453 22.1016C5.01561 22.1202 5.12628 22.1081 5.26074 22.0586L5.40527 21.9961C5.88986 21.7625 6.0682 21.1838 5.81152 20.7275L5.75391 20.6377C5.73227 20.6069 5.69021 20.5665 5.62891 20.5176C5.56741 20.4686 5.48662 20.4109 5.38867 20.3457C5.29065 20.2805 5.1751 20.2075 5.04395 20.1279L4.60449 19.8701C4.28274 19.6858 4.00331 19.515 3.78223 19.3682C3.6162 19.2579 3.48281 19.1611 3.38965 19.0811L3.31055 19.0068C2.82949 18.5198 2.59037 17.846 2.65527 17.1758L2.67188 17.042C2.74691 16.5762 2.87995 16.1915 3.10352 15.835C3.27122 15.5676 3.49004 15.3156 3.77344 15.0576L4.0791 14.7969C5.59937 13.5774 6.24872 12.946 6.84766 12.0498L7.10352 11.6475C7.44236 11.09 7.79148 10.2645 7.98633 9.56055L8.05957 9.2666C8.09397 9.11628 8.18501 8.53992 8.30371 7.73242L8.71582 4.81055C8.92517 3.27324 9.05489 2.28409 9.12598 1.65918C9.16151 1.34681 9.18253 1.12507 9.19141 0.97168C9.19583 0.895162 9.19752 0.835488 9.19629 0.790039L9.18457 0.693359C9.11294 0.444352 8.93114 0.23988 8.70996 0.119141C8.51638 0.0134891 8.29281 -0.0279333 8.08789 0.0195312L8.00098 0.0458984C7.90463 0.0832789 7.79363 0.154757 7.69629 0.237305C7.62329 0.299244 7.5582 0.367506 7.51172 0.431641L7.47168 0.494141C7.46874 0.500101 7.46468 0.512555 7.45996 0.53125C7.45525 0.54997 7.44962 0.574782 7.44336 0.605469C7.43081 0.667021 7.41569 0.752135 7.39746 0.858398C7.36094 1.07126 7.31328 1.36973 7.25781 1.73535C7.20234 2.10103 7.13868 2.5343 7.06934 3.01758L6.84668 4.59961C6.69984 5.68059 6.55193 6.71946 6.43164 7.52246C6.37148 7.92404 6.31779 8.26691 6.27539 8.52637L6.18457 9.03125C6.05313 9.54579 5.72051 10.2946 5.39648 10.834L5.25879 11.0508C4.90316 11.576 4.48034 12.0195 3.67285 12.7041L3.30176 13.0137C2.25216 13.8719 1.82459 14.3045 1.4873 14.876L1.34668 15.1318C0.934514 15.9375 0.796875 16.4934 0.796875 17.4053C0.796878 17.7239 0.803744 17.9299 0.827148 18.1094C0.838838 18.199 0.854356 18.282 0.875977 18.3691L0.958984 18.6543C1.1885 19.3592 1.53351 19.9154 2.04688 20.4033L2.27734 20.6094C2.48982 20.7874 3.07349 21.1482 3.63965 21.4707C3.92282 21.632 4.2023 21.7829 4.42773 21.8975C4.54038 21.9547 4.6398 22.0029 4.71973 22.0381C4.75979 22.0557 4.79479 22.0703 4.82422 22.0811L4.89453 22.1016Z" fill="#8A8AA2" stroke="#8A8AA2" stroke-width="0.00625"/>
<path d="M17.3439 0.0675793C17.0877 0.217579 16.8689 0.467579 16.8127 0.686329C16.7252 0.998829 17.7939 8.82383 18.0314 9.65508C18.3627 10.7988 18.8752 11.7676 19.6752 12.7551C20.0939 13.2738 20.4564 13.6051 21.7377 14.6488C22.6502 15.3988 22.9627 15.7926 23.1752 16.4488C23.4252 17.2176 23.4064 17.7926 23.1127 18.4176C22.8752 18.9176 22.4939 19.2426 21.3939 19.8676C20.7502 20.2363 20.3314 20.5113 20.2439 20.6363C19.9064 21.1051 20.0752 21.7488 20.5939 21.9988C20.8002 22.0988 20.9439 22.1301 21.1064 22.1051C21.3814 22.0613 23.2939 20.9738 23.7002 20.6363C24.7189 19.7863 25.2189 18.6926 25.2064 17.3426C25.2002 16.4926 25.0502 15.8926 24.6564 15.1301C24.2877 14.4113 23.9002 13.9988 22.6627 12.9738C21.5814 12.0801 21.1439 11.6426 20.7377 11.0426C20.3752 10.5113 19.9689 9.61133 19.8189 9.03008C19.7502 8.75508 19.4502 6.76133 19.1564 4.59883C18.8439 2.33633 18.5814 0.592579 18.5314 0.492579C18.3377 0.117579 17.6689 -0.119921 17.3439 0.0675793Z" fill="#8A8AA2"/>
<path d="M6.53075 17.9586C6.11825 18.1336 5.8745 18.6211 5.96825 19.0586C6.0245 19.3273 6.387 19.6711 6.637 19.7086C8.00575 19.8961 8.187 19.9773 8.93075 20.7586C9.762 21.6336 10.4995 22.1023 11.4808 22.3836C11.8995 22.5086 12.112 22.5273 12.9995 22.5273C13.887 22.5273 14.0995 22.5086 14.5183 22.3836C15.4995 22.1023 16.237 21.6273 17.062 20.7586C17.7995 19.9836 17.987 19.8961 19.362 19.7086C19.4808 19.6898 19.6495 19.5898 19.7808 19.4648C20.1308 19.1148 20.1495 18.6211 19.8245 18.2336C19.512 17.8648 19.0995 17.7961 18.237 17.9586C17.237 18.1523 16.6058 18.5273 15.6808 19.4773C14.787 20.3961 14.1433 20.6836 12.9995 20.6836C11.8433 20.6836 11.2183 20.3961 10.287 19.4523C9.38075 18.5211 8.7495 18.1461 7.762 17.9586C7.19325 17.8523 6.7745 17.8523 6.53075 17.9586Z" fill="#8A8AA2"/>
<path d="M8.30598 23.1933C7.93098 23.412 7.85598 23.6183 7.80598 24.4995C7.77473 25.0808 7.72473 25.412 7.59973 25.787C7.13098 27.2495 5.73723 28.437 4.23098 28.6558L3.93723 28.6995L3.99973 28.537C4.21848 27.9558 3.76848 27.312 3.14348 27.312C2.99348 27.312 2.79348 27.3495 2.69973 27.3995C2.60598 27.4495 2.14973 27.8808 1.68098 28.3558C0.930982 29.112 0.818482 29.2495 0.780982 29.4808C0.712232 29.912 0.887232 30.1808 1.79348 31.0745C2.78098 32.0495 2.96848 32.137 3.53723 31.8808C3.95598 31.687 4.16848 31.1183 3.97473 30.6808C3.93723 30.5933 3.99348 30.5745 4.33723 30.537C6.31223 30.337 8.21223 28.962 9.09973 27.0933C9.50598 26.2308 9.63098 25.687 9.66848 24.6245C9.69973 23.7495 9.69348 23.712 9.54973 23.4995C9.26848 23.0808 8.73098 22.9495 8.30598 23.1933Z" fill="#8A8AA2"/>
<path d="M16.812 23.1723C16.6932 23.2285 16.5307 23.3785 16.4495 23.4973C16.3057 23.7098 16.2995 23.7473 16.3307 24.6223C16.362 25.666 16.487 26.216 16.862 27.0223C17.6307 28.6535 19.012 29.8473 20.7182 30.341C21.012 30.4223 21.437 30.516 21.662 30.5348C22.0057 30.5723 22.062 30.591 22.0245 30.6785C21.837 31.0973 22.037 31.666 22.4432 31.8723C22.987 32.1535 23.2182 32.0473 24.2057 31.0723C25.112 30.1785 25.287 29.9098 25.2182 29.4785C25.1807 29.2473 25.0682 29.1098 24.3182 28.3535C23.8495 27.8785 23.3932 27.4473 23.2995 27.3973C22.5807 27.0223 21.712 27.7785 21.9995 28.5348L22.062 28.6973L21.7682 28.6535C20.2682 28.441 18.8932 27.2723 18.3995 25.7973C18.2682 25.3973 18.2245 25.1098 18.1932 24.4973C18.1432 23.6098 18.0682 23.4035 17.687 23.191C17.3995 23.0285 17.1057 23.0223 16.812 23.1723Z" fill="#8A8AA2"/>
</svg>
