<svg width="32" height="32" viewBox="0 0 32 32" fill="none" xmlns="http://www.w3.org/2000/svg">
<rect x="0.857143" y="0.857143" width="30.2857" height="30.2857" rx="15.1429" stroke="#8A8AA2" stroke-width="1.71429"/>
<path d="M13.0614 9.63281H10.6124C10.0714 9.63281 9.63281 10.0714 9.63281 10.6124V21.3879C9.63281 21.9289 10.0714 22.3675 10.6124 22.3675H13.0614C13.6024 22.3675 14.041 21.9289 14.041 21.3879V10.6124C14.041 10.0714 13.6024 9.63281 13.0614 9.63281Z" stroke="#8A8AA2" stroke-width="1.71429" stroke-linecap="round" stroke-linejoin="round"/>
<path d="M21.3876 9.63281H18.9386C18.3976 9.63281 17.959 10.0714 17.959 10.6124V21.3879C17.959 21.9289 18.3976 22.3675 18.9386 22.3675H21.3876C21.9286 22.3675 22.3671 21.9289 22.3671 21.3879V10.6124C22.3671 10.0714 21.9286 9.63281 21.3876 9.63281Z" stroke="#8A8AA2" stroke-width="1.71429" stroke-linecap="round" stroke-linejoin="round"/>
</svg>
