<svg width="26" height="32" viewBox="0 0 26 32" fill="none" xmlns="http://www.w3.org/2000/svg">
<path d="M4.89453 22.1055C5.01561 22.1241 5.12628 22.112 5.26074 22.0625L5.40527 22C5.88986 21.7664 6.0682 21.1877 5.81152 20.7314L5.75391 20.6416C5.73227 20.6108 5.69021 20.5704 5.62891 20.5215C5.56741 20.4725 5.48662 20.4148 5.38867 20.3496C5.29065 20.2844 5.1751 20.2114 5.04395 20.1318L4.60449 19.874C4.28274 19.6897 4.00331 19.5189 3.78223 19.3721C3.6162 19.2618 3.48281 19.165 3.38965 19.085L3.31055 19.0107C2.82949 18.5237 2.59037 17.8499 2.65527 17.1797L2.67188 17.0459C2.74691 16.5801 2.87995 16.1954 3.10352 15.8389C3.27122 15.5715 3.49004 15.3195 3.77344 15.0615L4.0791 14.8008C5.59937 13.5813 6.24872 12.9499 6.84766 12.0537L7.10352 11.6514C7.44236 11.0939 7.79148 10.2684 7.98633 9.56445L8.05957 9.27051C8.09397 9.12019 8.18501 8.54383 8.30371 7.73633L8.71582 4.81445C8.92517 3.27715 9.05489 2.288 9.12598 1.66309C9.16151 1.35072 9.18253 1.12897 9.19141 0.975586C9.19583 0.899069 9.19752 0.839394 9.19629 0.793945L9.18457 0.697266C9.11294 0.448258 8.93114 0.243786 8.70996 0.123047C8.51638 0.0173954 8.29281 -0.024027 8.08789 0.0234375L8.00098 0.0498047C7.90463 0.0871852 7.79363 0.158663 7.69629 0.241211C7.62329 0.303151 7.5582 0.371413 7.51172 0.435547L7.47168 0.498047C7.46874 0.504007 7.46468 0.516461 7.45996 0.535156C7.45525 0.553877 7.44962 0.578688 7.44336 0.609375C7.43081 0.670927 7.41569 0.756041 7.39746 0.862305C7.36094 1.07517 7.31328 1.37364 7.25781 1.73926C7.20234 2.10493 7.13868 2.53821 7.06934 3.02148L6.84668 4.60352C6.69984 5.6845 6.55193 6.72337 6.43164 7.52637C6.37148 7.92795 6.31779 8.27082 6.27539 8.53027L6.18457 9.03516C6.05313 9.54969 5.72051 10.2985 5.39648 10.8379L5.25879 11.0547C4.90316 11.5799 4.48034 12.0234 3.67285 12.708L3.30176 13.0176C2.25216 13.8759 1.82459 14.3084 1.4873 14.8799L1.34668 15.1357C0.934514 15.9414 0.796875 16.4973 0.796875 17.4092C0.796878 17.7278 0.803744 17.9338 0.827148 18.1133C0.838838 18.2029 0.854356 18.2859 0.875977 18.373L0.958984 18.6582C1.1885 19.3631 1.53351 19.9193 2.04688 20.4072L2.27734 20.6133C2.48982 20.7913 3.07349 21.1521 3.63965 21.4746C3.92282 21.6359 4.2023 21.7868 4.42773 21.9014C4.54038 21.9586 4.6398 22.0068 4.71973 22.042C4.75979 22.0596 4.79479 22.0742 4.82422 22.085L4.89453 22.1055Z" fill="#8A8AA2" stroke="#8A8AA2" stroke-width="0.00625"/>
<path d="M17.3439 0.0714855C17.0877 0.221485 16.8689 0.471485 16.8127 0.690235C16.7252 1.00274 17.7939 8.82774 18.0314 9.65899C18.3627 10.8027 18.8752 11.7715 19.6752 12.759C20.0939 13.2777 20.4564 13.609 21.7377 14.6527C22.6502 15.4027 22.9627 15.7965 23.1752 16.4527C23.4252 17.2215 23.4064 17.7965 23.1127 18.4215C22.8752 18.9215 22.4939 19.2465 21.3939 19.8715C20.7502 20.2402 20.3314 20.5152 20.2439 20.6402C19.9064 21.109 20.0752 21.7527 20.5939 22.0027C20.8002 22.1027 20.9439 22.134 21.1064 22.109C21.3814 22.0652 23.2939 20.9777 23.7002 20.6402C24.7189 19.7902 25.2189 18.6965 25.2064 17.3465C25.2002 16.4965 25.0502 15.8965 24.6564 15.134C24.2877 14.4152 23.9002 14.0027 22.6627 12.9777C21.5814 12.084 21.1439 11.6465 20.7377 11.0465C20.3752 10.5152 19.9689 9.61524 19.8189 9.03399C19.7502 8.75899 19.4502 6.76524 19.1564 4.60274C18.8439 2.34023 18.5814 0.596485 18.5314 0.496485C18.3377 0.121485 17.6689 -0.116014 17.3439 0.0714855Z" fill="#8A8AA2"/>
<path d="M6.53173 17.9664C6.11923 18.1414 5.87548 18.6289 5.96923 19.0664C6.02548 19.3352 6.38798 19.6789 6.63798 19.7164C8.00673 19.9039 8.18798 19.9852 8.93173 20.7664C9.76298 21.6414 10.5005 22.1102 11.4817 22.3914C11.9005 22.5164 12.113 22.5352 13.0005 22.5352C13.888 22.5352 14.1005 22.5164 14.5192 22.3914C15.5005 22.1102 16.238 21.6352 17.063 20.7664C17.8005 19.9914 17.988 19.9039 19.363 19.7164C19.4817 19.6977 19.6505 19.5977 19.7817 19.4727C20.1317 19.1227 20.1505 18.6289 19.8255 18.2414C19.513 17.8727 19.1005 17.8039 18.238 17.9664C17.238 18.1602 16.6067 18.5352 15.6817 19.4852C14.788 20.4039 14.1442 20.6914 13.0005 20.6914C11.8442 20.6914 11.2192 20.4039 10.288 19.4602C9.38173 18.5289 8.75048 18.1539 7.76298 17.9664C7.19423 17.8602 6.77548 17.8602 6.53173 17.9664Z" fill="#8A8AA2"/>
<path d="M8.71892 23.5428C8.68767 23.549 8.57517 23.574 8.46892 23.599C8.26267 23.6428 6.68767 25.1553 6.52517 25.4553C6.40017 25.699 6.41267 26.124 6.56267 26.3678C6.75642 26.6865 7.03767 26.8303 7.41267 26.799L7.73767 26.7803L7.64392 27.0928C7.46267 27.7053 7.06267 28.3803 6.59392 28.8428C5.76892 29.674 4.89392 30.0428 3.55642 30.124C2.68767 30.174 2.53142 30.2303 2.30642 30.5865C2.14392 30.849 2.16892 31.3428 2.36267 31.6115C2.61267 31.9615 2.85642 32.024 3.74392 31.9865C5.05017 31.9303 6.15642 31.5615 7.16267 30.849C7.70017 30.4678 8.48142 29.6115 8.83767 29.0178C9.16267 28.474 9.53767 27.4803 9.60017 26.9865C9.63767 26.7428 9.66267 26.6928 9.74392 26.7303C10.5314 27.049 11.3189 26.374 11.0627 25.5928C10.9877 25.3615 9.91892 24.199 9.42517 23.8053C9.20017 23.6303 8.86892 23.5053 8.71892 23.5428Z" fill="#8A8AA2"/>
<path d="M17.0186 23.5659C16.7499 23.6284 16.4624 23.8659 15.6749 24.6784C14.9811 25.3972 14.8311 25.6597 14.8999 26.0222C15.0186 26.6534 15.6499 26.9784 16.2561 26.7284C16.3374 26.6909 16.3624 26.7409 16.3999 26.9847C16.4624 27.4784 16.8374 28.4722 17.1624 29.0159C17.5186 29.6097 18.2999 30.4597 18.8374 30.8472C19.8374 31.5534 20.9499 31.9284 22.2561 31.9847C22.9249 32.0159 23.0749 32.0034 23.2686 31.9097C23.9061 31.6097 23.9874 30.7097 23.4249 30.2909C23.2811 30.1909 23.1061 30.1597 22.4499 30.1222C21.1061 30.0409 20.2499 29.6847 19.4061 28.8409C18.9374 28.3784 18.5374 27.7097 18.3561 27.0909L18.2624 26.7784L18.5874 26.7972C18.9624 26.8284 19.2436 26.6847 19.4374 26.3659C19.5874 26.1222 19.5999 25.6972 19.4749 25.4534C19.3124 25.1534 17.7374 23.6409 17.5311 23.5972C17.4249 23.5722 17.3186 23.5472 17.2811 23.5409C17.2499 23.5347 17.1311 23.5472 17.0186 23.5659Z" fill="#8A8AA2"/>
</svg>
